<svg xmlns="http://www.w3.org/2000/svg" width="100" height="100" viewBox="13 5 105 105">
  <g>
    <path d="M 110.7 57.6 H 90.2 V 18 a 12.3 10.8 0 0 0 -12.3 -10.8 H 28.7 A 12.3 10.8 0 0 0 16.4 18 V 90 a 20.5 18 0 0 0 20.5 18 H 98.4 a 16.4 14.4 0 0 0 16.4 -14.4 V 61.2 A 4.1 3.6 0 0 0 110.7 57.6 Z M 41 50.4 h 16.4 V 46.8 H 45.1 a 4.1 3.6 0 0 1 -4.1 -3.6 V 32.4 a 4.1 3.6 0 0 1 4.1 -3.6 h 4.1 V 25.2 h 8.2 V 28.8 h 8.2 v 7.2 H 49.2 v 3.6 h 12.3 a 4.1 3.6 0 0 1 4.1 3.6 v 10.8 a 4.1 3.6 0 0 1 -4.1 3.6 H 57.4 v 3.6 H 49.2 V 57.6 H 41 Z m 32.8 39.6 H 32.8 V 82.8 H 73.8 Z m 0 -14.4 H 32.8 V 68.4 H 73.8 Z m 32.8 18 a 8.2 7.2 0 0 1 -16.4 0 V 64.8 h 16.4 Z"/>
  </g>
</svg>