<svg width="100" height="100" xmlns="http://www.w3.org/2000/svg" viewBox="4 5 92 90">
  <path d="M72.887,93.093H27.114c-0.526,0-0.954,0.427-0.954,0.954S26.587,95,27.114,95h45.773c0.526,0,0.953-0.426,0.953-0.953   S73.413,93.093,72.887,93.093z"/>
  <path d="M75.955,58.722c-0.234-0.036-0.469-0.072-0.712-0.072H24.758c-0.25,0-0.49,0.035-0.729,0.074   c-2.21,0.353-3.909,2.257-3.909,4.563v0.108l0.019,0.107l4.19,24.303c0.063,2.504,2.118,4.52,4.636,4.52h42.072   c2.517,0,4.571-2.016,4.635-4.52l4.189-24.303l0.019-0.107v-0.108C79.88,60.974,78.172,59.067,75.955,58.722z M50.001,77.063   c-1.102,0-1.997-0.892-1.997-1.997c0-1.102,0.895-1.994,1.997-1.994c1.102,0,1.994,0.893,1.994,1.994   C51.995,76.172,51.103,77.063,50.001,77.063z"/>
  <path d="M75.933,56.712c-1.122-3.861-2.604-6.307-4.075-7.876c-2.422-2.58-4.819-2.784-5.55-2.955   c-0.14-0.029-0.277-0.062-0.418-0.086c-0.446-0.414-0.802-0.992-1.077-1.687c-0.688-1.734-0.892-4.2-0.871-6.651   c0.015-1.694,0.138-3.38,0.284-4.816c1.759-0.487,3.047-2.002,3.047-3.812v-3.126c0-1.836-1.325-3.377-3.125-3.837   c-0.013-0.002-0.024-0.009-0.037-0.011v-0.181v-3.383C64.11,10.962,57.766,5,49.966,5s-14.143,5.962-14.143,13.291v3.583   c-1.777,0.475-3.08,2.008-3.08,3.829v3.126c0,1.808,1.283,3.326,3.036,3.815c0.147,1.438,0.271,3.123,0.287,4.816   c0.023,2.451-0.183,4.917-0.874,6.654c-0.275,0.691-0.628,1.271-1.077,1.684c-0.142,0.027-0.278,0.057-0.415,0.09   c-0.734,0.168-3.129,0.372-5.551,2.952c-1.471,1.571-2.954,4.019-4.077,7.877c-0.015,0.05-0.023,0.1-0.036,0.15   c0.239-0.039,0.479-0.074,0.729-0.074h50.485c0.243,0,0.479,0.036,0.712,0.072C75.949,56.815,75.946,56.763,75.933,56.712z    M49.966,7.774c3.899,0,7.334,1.885,9.34,4.733c-0.068-0.058-0.135-0.118-0.202-0.176c-0.067-0.056-0.134-0.112-0.2-0.165   c-0.173-0.137-0.349-0.268-0.526-0.391c-0.027-0.023-0.059-0.046-0.085-0.065c-0.204-0.142-0.414-0.273-0.621-0.398   c-0.061-0.035-0.119-0.067-0.179-0.101c-0.148-0.087-0.296-0.167-0.44-0.241c-0.077-0.041-0.152-0.076-0.228-0.114   c-0.134-0.065-0.264-0.127-0.394-0.185c-0.079-0.034-0.153-0.066-0.23-0.099c-0.134-0.056-0.265-0.106-0.4-0.157   c-0.067-0.025-0.141-0.052-0.205-0.078c-0.154-0.056-0.313-0.107-0.464-0.152c-0.04-0.012-0.085-0.029-0.125-0.04   c-0.192-0.056-0.379-0.107-0.563-0.152c-0.063-0.014-0.119-0.026-0.178-0.038c-0.127-0.029-0.251-0.059-0.371-0.083   c-0.071-0.013-0.142-0.026-0.209-0.038c-0.107-0.019-0.214-0.036-0.314-0.053c-0.07-0.012-0.139-0.021-0.202-0.029   c-0.1-0.015-0.2-0.026-0.296-0.036c-0.065-0.006-0.126-0.016-0.186-0.022c-0.102-0.008-0.2-0.018-0.297-0.023   c-0.05-0.004-0.101-0.009-0.145-0.012c-0.136-0.009-0.26-0.011-0.383-0.018c-0.055-0.001-0.103-0.001-0.159-0.001   c-0.06,0-0.124-0.001-0.184-0.001c-0.297,0-0.537,0.011-0.704,0.026c-0.023,0-0.038,0.001-0.057,0.003   c-0.063,0.004-0.11,0.008-0.146,0.013c-0.012,0.002-0.028,0.003-0.036,0.004c-0.035,0.002-0.054,0.006-0.054,0.006   c-0.174-0.011-0.346-0.019-0.517-0.025c-0.17,0.004-0.343,0.014-0.517,0.022c0,0-0.021-0.002-0.053-0.005   c-0.012-0.001-0.027-0.002-0.039-0.003c-0.032-0.004-0.084-0.01-0.143-0.014c-0.016-0.001-0.036-0.001-0.058-0.002   c-0.17-0.016-0.407-0.026-0.705-0.026c-0.06,0-0.127,0-0.19,0c-0.052,0-0.096,0-0.149,0.002c-0.122,0.002-0.253,0.009-0.387,0.016   c-0.04,0.003-0.085,0.006-0.125,0.011c-0.102,0.006-0.208,0.015-0.317,0.026c-0.057,0.004-0.115,0.012-0.17,0.021   c-0.103,0.009-0.207,0.022-0.315,0.036c-0.062,0.009-0.123,0.019-0.187,0.027c-0.113,0.018-0.225,0.037-0.341,0.059   c-0.062,0.012-0.124,0.021-0.187,0.034c-0.134,0.026-0.268,0.057-0.41,0.087c-0.047,0.011-0.092,0.022-0.142,0.033   c-0.189,0.044-0.382,0.095-0.576,0.154c-0.031,0.008-0.063,0.021-0.093,0.029c-0.162,0.051-0.328,0.104-0.495,0.163   c-0.063,0.022-0.129,0.048-0.192,0.071c-0.139,0.053-0.276,0.107-0.417,0.165c-0.071,0.03-0.144,0.06-0.214,0.093   c-0.138,0.059-0.276,0.125-0.416,0.193c-0.07,0.034-0.141,0.067-0.211,0.105c-0.151,0.081-0.31,0.166-0.465,0.256   c-0.05,0.032-0.104,0.059-0.156,0.09c-0.208,0.126-0.417,0.259-0.629,0.403c-0.019,0.013-0.038,0.029-0.056,0.042   c-0.187,0.13-0.371,0.268-0.557,0.415c-0.06,0.049-0.122,0.102-0.186,0.151c-0.125,0.104-0.248,0.212-0.372,0.322   C42.53,9.722,46.008,7.774,49.966,7.774z M54.708,41.247c-1.408,1.084-2.985,1.747-4.654,1.747c-1.678,0-3.265-0.672-4.678-1.77   c-2.398-1.864-4.3-4.952-5.294-8.049c-0.083,0.074-0.172,0.124-0.274,0.143c-0.202,0.036-0.423-0.067-0.629-0.275   c-0.143-0.143-0.276-0.35-0.404-0.582v-4.654c0.017-0.004,0.032-0.018,0.05-0.021c0.168-0.029,0.346,0.035,0.52,0.176   c0,0,0-0.014,0.002-0.039c0.06-0.584,0.838-7.132,5.739-6.678l14.991,7.715l1.084-1.043v4.522c-0.302,0.28-0.65,0.541-1.021,0.792   c-0.056,0.039-0.113,0.076-0.17,0.113c-1.776,1.156-4.227,1.972-6.976,2.206c-0.327-0.507-0.896-0.844-1.547-0.844h-2.454   c-1.022,0-1.848,0.826-1.848,1.847c0,1.02,0.826,1.847,1.848,1.847h2.454c0.712,0,1.322-0.406,1.629-0.997   c2.129-0.166,4.072-0.645,5.747-1.347C57.772,38.103,56.363,39.968,54.708,41.247z"/>
</svg>