<svg xmlns="http://www.w3.org/2000/svg" width="100" height="100" viewBox="2 2 96 96">
  <path d="M92.3,64.9c0,0,0.1,0,0.1,0H96c0.6,0,1-0.5,0.9-1.1c-0.8-4.9-7.1-6.9-9.4-7.5c-0.6-0.2-1.1-0.6-1.3-1.1L82.3,47     c0.5,0.3,1,0.4,1.6,0.4h2c0.3,0,0.5-0.2,0.5-0.5v-6.6c0-0.3-0.2-0.5-0.5-0.5h-2c-0.9,0-1.8,0.4-2.4,1.1c-0.1-0.5-0.3-1.1-0.5-1.8     c-0.3-1.1-1.6-0.9-3.2-0.5c-2.2,0.5-4.3,1-6.5,1.2l-0.9,0.1c-0.3-1-1.1-1.8-2.1-2l-5.6-1.4c-1-1.2-2.2-2.7-4.1-4.8     c-0.3-0.3-1.4-1.7-3.3-2.2c-1.7-0.4-3.9-1.1-5.7,0c-1.8,1-2.9,2.8-3.2,4.9L44.8,49c-0.1,1,0.2,1.9,0.8,2.6     c0.6,0.7,1.6,1.1,2.5,1.1h14l-0.5,12.4c-0.1,1.9,1.4,3.4,3.2,3.5c0,0,0.1,0,0.1,0c1.8,0,3.3-1.4,3.4-3.2L69,49.6     c0-0.9-0.3-1.8-0.9-2.5c-0.6-0.7-1.5-1-2.4-1h-8.7l0.6-6.5c0.7,0.8,1.2,1.4,1.2,1.4c0.4,0.5,1,0.9,1.6,1l6.6,1.6     c0.2,0.1,0.5,0.1,0.7,0.1c0.7,0,1.3-0.2,1.8-0.7l2.8-0.4c0.1,0.4,0.2,0.9,0.2,1.4c0.3,2.2,1,3.1,2.3,3.4c1,3.7,2.1,9.5,2.9,13.1     c0.3,1.7-0.2,3.5-1.4,4.8l-3.8,4.1c-0.7,0.7-1.6,1.1-2.6,1.1H58.6c-1.3,0-2.3-1-2.2-2.3l0.2-7.4l1.2,0c0.7,0,1.4-0.5,1.6-1.3     l0.6-2.4c0.2-1-0.5-2-1.6-2H26.3c-1.4,0-1.9,1.8-0.8,2.6l5.4,3.5c-3.2,3.4-3.8,8.3-3.9,10.5c0,0.6,0.5,1.1,1.1,1.1h2.3     c0,0.4-0.1,0.8-0.1,1.2c0,5.9,4.8,10.6,10.6,10.6c5.5,0,10-4.2,10.6-9.5c0.5,0.1,0.9,0.1,1.4,0.1h20.1c1.2,0,2.3-0.6,3.1-1.5     c0,0.1,0,0.1,0,0.2c0,6.3,5.4,11.3,11.8,10.6c4.6-0.5,8.5-4.2,9.3-8.8C98.1,71.2,95.9,67,92.3,64.9z M41.1,80.1     c-3.4,0-6.1-2.7-6.1-6.1c0-0.4,0-0.8,0.1-1.2h3.6c-0.2,0.4-0.3,0.7-0.3,1.2c0,1.5,1.2,2.6,2.6,2.6c1.5,0,2.6-1.2,2.6-2.6     c0-0.4-0.1-0.8-0.3-1.2h3.6l0,0.3c0,0.3,0.1,0.6,0.1,0.9C47.2,77.4,44.5,80.1,41.1,80.1z M86.9,80.1c-3.4,0-6.1-2.7-6.1-6.1     s2.7-6.1,6.1-6.1S93,70.6,93,74S90.2,80.1,86.9,80.1z"/>
  <path d="M86.9,71.4c-1.5,0-2.6,1.2-2.6,2.6c0,1.5,1.2,2.6,2.6,2.6c1.5,0,2.6-1.2,2.6-2.6C89.5,72.5,88.3,71.4,86.9,71.4z"/>
  <path d="M26.6,52.8h12.8c1.2,0,2.2-1,2.2-2.2V38.5c0-1.2-1-2.2-2.2-2.2H26.6c-1.2,0-2.2,1-2.2,2.2v12.1     C24.4,51.8,25.4,52.8,26.6,52.8z"/>
  <path d="M57.3,20.5c-0.4-0.1-0.6,0-0.6,0c0,0-0.1,0.3,0.1,0.8c0.4,1.1,1.7,2.4,3.4,2.8c1.9,0.5,3.2,0.7,4,0.8     c-0.2-1.1-0.6-2.5-1.4-4.4C62,20.7,60,21.1,57.3,20.5z"/>
  <path d="M50.9,27.2L62,29.7c0.7,0.2,1.3-0.2,1.6-0.8c0.3-0.8,0.6-1.5,0.7-2.3c-0.9-0.1-2.3-0.3-4.5-0.8c-3.1-0.7-5.3-3.8-4.9-5.7     c0.2-0.9,1-1.7,2.7-1.3c2.1,0.4,3.7,0.2,4.5,0.1c-3.1-5.2-10.6-4-12.9,0.1c-1.7,2.9,0.1,6.4,0.9,7.6     C50.2,26.9,50.5,27.1,50.9,27.2z"/>
  <path d="M17.8,50.1c1.2,0,2.1-0.9,2.1-2.1c0-1.2-0.9-2.1-2.1-2.1H4.6c-1.2,0-2.1,0.9-2.1,2.1c0,1.2,0.9,2.1,2.1,2.1H17.8z"/>
  <path d="M19.2,59.2c1.2,0,2.1-0.9,2.1-2.1c0-1.2-0.9-2.1-2.1-2.1H6C4.9,55,4,56,4,57.1c0,1.2,0.9,2.1,2.1,2.1H19.2z"/>
  <path d="M20.7,64.1H7.5c-1.2,0-2.1,0.9-2.1,2.1s0.9,2.1,2.1,2.1h13.2c1.2,0,2.1-0.9,2.1-2.1S21.8,64.1,20.7,64.1z"/>
</svg>