<svg width="100" height="100" viewBox="-2 -2 315 315" xmlns="http://www.w3.org/2000/svg" xmlns:xlink="http://www.w3.org/1999/xlink">
  <g stroke="none" stroke-width="1" fill-rule="evenodd">
    <g>
      <path d="M 155.3503 74 C 198.1523 74 232.8503 108.6979 232.8503 151.5 L 232.8503 240 C 232.8503 244.4183 229.2685 248 224.8503 248 L 85.8503 248 C 81.432 248 77.8503 244.4183 77.8503 240 L 77.8503 151.5 C 77.8503 108.6979 112.5482 74 155.3503 74 Z M 198.2627 155.0823 L 198.2627 155.0823 C 198.2627 155.0906 198.2627 155.0989 198.2627 155.1071 C 198.2627 159.631 201.9299 163.2983 206.4538 163.2983 C 211.0165 163.2983 214.7167 159.6021 214.7218 155.0394 L 214.7218 155.0394 C 214.7251 152.0265 214.7176 150.4092 214.6994 150.1876 C 212.0996 118.6346 185.9226 93.7534 153.6035 93.1772 C 153.462 93.1747 152.136 93.1725 149.6256 93.1707 C 149.6236 93.1707 149.6216 93.1707 149.6196 93.1707 C 145.0649 93.1707 141.3726 96.863 141.3726 101.4178 C 141.3726 105.9742 145.0644 109.6689 149.6208 109.6725 L 149.6208 109.6724 C 152.0613 109.6744 153.3432 109.6766 153.4667 109.6793 C 176.8591 110.1795 195.9512 128.0112 198.2282 150.7533 C 198.259 151.0615 198.2705 152.5045 198.2627 155.0823 Z M 81.6731 256.1866 L 234.8639 256.1866 C 239.7333 256.1866 244.8729 260.0844 246.3436 264.8925 L 252.3352 284.4807 C 253.8059 289.2889 250.5277 293.1866 245.0132 293.1866 L 71.5239 293.1866 C 66.0093 293.1866 62.7311 289.2889 64.2018 284.4807 L 70.1934 264.8925 C 71.6641 260.0844 76.8038 256.1866 81.6731 256.1866 Z M 155.3503 0 C 162.8061 0 168.8503 6.0442 168.8503 13.5 L 168.8503 50.5 C 168.8503 57.9558 162.8061 64 155.3503 64 C 147.8944 64 141.8503 57.9558 141.8503 50.5 L 141.8503 13.5 C 141.8503 6.0442 147.8944 0 155.3503 0 Z M 253.0639 30.7364 C 259.3169 34.7971 261.094 43.1581 257.0333 49.4111 L 236.8817 80.4419 C 232.8209 86.6949 224.46 88.4721 218.207 84.4113 C 211.954 80.3506 210.1768 71.9896 214.2375 65.7366 L 234.3892 34.7058 C 238.4499 28.4528 246.8109 26.6756 253.0639 30.7364 Z M 309.4325 107.2871 C 312.5834 114.0444 309.66 122.0766 302.9027 125.2276 L 269.3693 140.8645 C 262.612 144.0154 254.5797 141.0919 251.4288 134.3347 C 248.2778 127.5774 251.2013 119.5451 257.9586 116.3942 L 291.492 100.7573 C 298.2493 97.6063 306.2815 100.5298 309.4325 107.2871 Z M 1.2681 107.2871 C 4.419 100.5298 12.4513 97.6063 19.2086 100.7573 L 52.742 116.3942 C 59.4992 119.5451 62.4227 127.5774 59.2718 134.3347 C 56.1208 141.0919 48.0886 144.0154 41.3313 140.8645 L 7.7979 125.2276 C 1.0406 122.0766 -1.8829 114.0444 1.2681 107.2871 Z M 57.6367 30.7364 C 63.8897 26.6756 72.2506 28.4528 76.3113 34.7058 L 96.463 65.7366 C 100.5237 71.9896 98.7465 80.3506 92.4936 84.4113 C 86.2406 88.4721 77.8796 86.6949 73.8189 80.4419 L 53.6672 49.4111 C 49.6065 43.1581 51.3837 34.7971 57.6367 30.7364 Z"/>
    </g>
  </g>
</svg>