<svg width="100" height="100" xmlns="http://www.w3.org/2000/svg" viewBox="4 5 91 90">
  <path d="M67.257,5.192h-33.89c-3.078,0-5.596,2.518-5.596,5.596v78.423c0,3.078,2.518,5.596,5.596,5.596h33.89  c3.078,0,5.596-2.518,5.596-5.596V10.788C72.853,7.711,70.335,5.192,67.257,5.192z M44.763,12.455h10.414v1.507H44.763V12.455z   M49.97,90.971c-2.27,0-4.111-1.84-4.111-4.111c0-2.27,1.84-4.111,4.111-4.111c2.27,0,4.111,1.84,4.111,4.111  C54.08,89.13,52.24,90.971,49.97,90.971z M67.783,76.72H32.019V20.539h35.764V76.72z"/>
  <polygon points="41.104,79.242 40.229,78.758 44.98,70.162 55.017,67.192 55.976,61.594 47.724,58.962   46.775,50.852 38.926,47.67 38.927,39.161 28.859,31.311 29.474,30.522 39.927,38.672 39.926,46.997 47.7,50.148 48.642,58.205   57.108,60.906 55.897,67.975 45.657,71.005 "/>
  <polygon points="62.488,66.73 60.923,62.841 55.679,61.553 59.454,56.64 58.592,53.386 62.123,51.781 61.474,46.832   69.467,38.243 70.2,38.924 62.526,47.168 63.21,52.386 59.775,53.947 60.546,56.86 57.405,60.947 61.659,61.992 62.845,64.937   66.486,61.219 69.071,61.588 68.929,62.579 66.847,62.281 "/>
</svg>